<?xml version="1.0" encoding="UTF-8"?>
<svg version="1.1" xmlns="http://www.w3.org/2000/svg" width="500" height="500">
<path d="M0 0 C165 0 330 0 500 0 C500 165 500 330 500 500 C335 500 170 500 0 500 C0 335 0 170 0 0 Z " fill="#000000" transform="translate(0,0)"/>
<path d="M0 0 C1.43660515 -0.01488564 2.87315998 -0.03613528 4.30957031 -0.06408691 C13.4536153 -0.22598271 21.11586695 0.0658604 28.56567383 5.87718201 C34.80668702 10.6865641 39.67151557 11.1631313 47.39624023 10.84857178 C49.08500023 10.81321571 49.08500023 10.81321571 50.80787659 10.77714539 C62.7170084 10.46403475 74.60542085 9.64256996 86.47900391 8.69842529 C90.1257927 8.40884717 93.7735134 8.13452735 97.42163086 7.86224365 C99.75437875 7.68406392 102.08706392 7.50506067 104.41967773 7.32513428 C105.50381454 7.24280045 106.58795135 7.16046661 107.7049408 7.07563782 C108.70191483 6.99563034 109.69888885 6.91562286 110.72607422 6.83319092 C111.60029526 6.76435196 112.4745163 6.695513 113.37522888 6.62458801 C115.77814169 6.4075142 115.77814169 6.4075142 118.61108398 5.35247803 C122.29396733 5.09369989 125.98257632 5.12101416 129.67358398 5.10247803 C130.67325195 5.08185303 131.67291992 5.06122803 132.70288086 5.03997803 C139.22714938 5.0060637 145.68480805 5.36722447 151.61108398 8.35247803 C153.82462001 10.79222611 154.55202033 12.00547904 155.11108398 15.28997803 C154.61108398 18.35247803 154.61108398 18.35247803 152.86108398 21.10247803 C144.33811028 27.00299828 131.83289295 25.74874363 121.79858398 25.72747803 C121.0499408 25.72859589 120.30129761 25.72971375 119.52996826 25.73086548 C101.02121582 25.71757417 82.62780643 24.04596012 64.21264648 22.32513428 C62.88830849 22.20158821 62.88830849 22.20158821 61.53721619 22.07554626 C57.19062518 21.65448426 52.91481651 21.10874693 48.61108398 20.35247803 C39.92602001 19.59819207 34.52525631 20.05980343 27.61108398 25.35247803 C22.0161787 29.53330872 17.90666542 31.09144983 10.93139648 30.91107178 C10.11976044 30.90874039 9.30812439 30.906409 8.47189331 30.90400696 C6.75906823 30.89431497 5.04627299 30.87263333 3.33374023 30.83953857 C0.77723912 30.79076322 -1.7773069 30.77808305 -4.33422852 30.7723999 C-17.47597265 30.68176609 -30.43432012 29.61477426 -43.38891602 27.35247803 C-43.05891602 26.69247803 -42.72891602 26.03247803 -42.38891602 25.35247803 C-27.86891602 25.02247803 -13.34891602 24.69247803 1.61108398 24.35247803 C1.61108398 23.69247803 1.61108398 23.03247803 1.61108398 22.35247803 C0.4610791 22.29712891 -0.68892578 22.24177979 -1.8737793 22.18475342 C-6.15667213 21.9776866 -10.43932581 21.76598771 -14.72192383 21.55291748 C-16.57244811 21.46149161 -18.42303419 21.37130754 -20.27368164 21.28240967 C-22.9398712 21.15411721 -25.60580367 21.02130169 -28.27172852 20.88763428 C-29.50489304 20.82975487 -29.50489304 20.82975487 -30.76296997 20.77070618 C-35.04157695 20.55157714 -39.17112054 20.16222357 -43.38891602 19.35247803 C-40.35508592 17.32992463 -39.70132738 17.09670716 -36.28466797 17.03363037 C-35.46404373 17.01376068 -34.64341949 16.99389099 -33.79792786 16.97341919 C-32.47591621 16.95609238 -32.47591621 16.95609238 -31.12719727 16.93841553 C-30.22140427 16.91904938 -29.31561127 16.89968323 -28.38237 16.87973022 C-25.4888145 16.81994261 -22.59521921 16.77355235 -19.70141602 16.72747803 C-17.73981011 16.68929749 -15.77822095 16.65024572 -13.81665039 16.61029053 C-9.00754162 16.51424171 -4.19835436 16.4302076 0.61108398 16.35247803 C0.94108398 15.69247803 1.27108398 15.03247803 1.61108398 14.35247803 C-12.90891602 13.69247803 -27.42891602 13.03247803 -42.38891602 12.35247803 C-42.38891602 11.69247803 -42.38891602 11.03247803 -42.38891602 10.35247803 C-21.10391602 9.36247803 -21.10391602 9.36247803 0.61108398 8.35247803 C-4.49220699 6.57401881 -4.49220699 6.57401881 -9.46655273 5.9418335 C-10.57702469 5.88199783 -10.57702469 5.88199783 -11.70993042 5.82095337 C-12.8774736 5.77081589 -12.8774736 5.77081589 -14.06860352 5.71966553 C-14.88136749 5.67810333 -15.69413147 5.63654114 -16.53152466 5.59371948 C-19.10866952 5.46373851 -21.68619566 5.34543497 -24.26391602 5.22747803 C-26.01916258 5.14101108 -27.77437166 5.05377952 -29.52954102 4.96575928 C-33.81561614 4.75248134 -38.10207188 4.54966905 -42.38891602 4.35247803 C-42.05891602 3.69247803 -41.72891602 3.03247803 -41.38891602 2.35247803 C-39.41235352 1.9418335 -39.41235352 1.9418335 -36.76391602 1.71966553 C-35.76287842 1.63539307 -34.76184082 1.55112061 -33.73046875 1.46429443 C-32.07640015 1.34707031 -32.07640015 1.34707031 -30.38891602 1.22747803 C-29.25075439 1.14546143 -28.11259277 1.06344482 -26.93994141 0.97894287 C-17.96514905 0.39759442 -8.99265215 0.0855944 0 0 Z " fill="#F7D756" transform="translate(190.388916015625,152.64752197265625)"/>
<path d="M0 0 C8.27944228 1.11175273 16.55289477 1.83189048 24.88647461 2.40209961 C26.07547363 2.48572754 27.26447266 2.56935547 28.48950195 2.65551758 C31.87112596 2.87646112 35.25124499 3.0590321 38.63647461 3.21459961 C39.68383789 3.26567871 40.73120117 3.31675781 41.81030273 3.36938477 C42.8202832 3.39693848 43.83026367 3.42449219 44.87084961 3.45288086 C45.74451172 3.480354 46.61817383 3.50782715 47.51831055 3.53613281 C50.36274665 3.24282539 52.40766928 2.64644654 55.08447266 1.72241211 C61.75224378 -0.36879444 68.29999533 -0.19717729 75.23413086 -0.14868164 C76.63642883 -0.1481611 78.03872752 -0.14868627 79.44102478 -0.15019226 C82.3701376 -0.15010305 85.29897235 -0.13978744 88.22802734 -0.12158203 C91.93054192 -0.09904147 95.63265059 -0.09852791 99.33521461 -0.10481453 C138.41868298 -0.15570468 138.41868298 -0.15570468 150.63647461 5.21459961 C151.63647461 7.90209961 151.63647461 7.90209961 151.63647461 10.21459961 C141.14559861 17.7480252 128.18924258 19.04326602 115.63647461 20.46459961 C114.92124634 20.54831818 114.20601807 20.63203674 113.46911621 20.71829224 C93.15473418 23.07244904 73.76187765 24.5460284 54.87866211 15.30053711 C48.86580734 12.38838793 42.75840584 12.93751466 36.19897461 12.90209961 C35.18729721 12.89617798 35.18729721 12.89617798 34.15518188 12.89013672 C21.12574068 12.85506061 8.35586449 14.07827423 -4.55078125 15.79150391 C-12.05246567 16.76994273 -19.49419558 17.45181107 -27.06274414 17.58959961 C-27.8045845 17.61554199 -28.54642487 17.64148438 -29.31074524 17.66821289 C-34.47838669 17.68595244 -37.40017414 16.48905278 -41.36352539 13.21459961 C-42.96357689 10.0144966 -42.85867108 6.68749644 -42.36352539 3.21459961 C-40.52781551 0.56301868 -39.34823069 -0.51569251 -36.23852539 -1.36743164 C-24.20048279 -3.11752751 -11.9554746 -1.64179012 0 0 Z " fill="#F9D957" transform="translate(194.363525390625,331.785400390625)"/>
<path d="M0 0 C3.33101772 1.75978295 4.4516511 2.58937425 6.3125 5.75 C6.96081433 9.87169603 6.82195507 14.02017792 6.8125 18.1875 C6.84085938 19.31994141 6.86921875 20.45238281 6.8984375 21.61914062 C6.9178686 29.86278407 6.9178686 29.86278407 4.15625 33.91015625 C-2.94329338 38.50340479 -10.44489472 38.67940538 -18.6875 37.75 C-22.54646077 36.30432962 -25.60233168 34.55407375 -27.75732422 30.97143555 C-29.50803429 26.79040905 -29.05669632 22.28423508 -29.0625 17.8125 C-29.08699219 16.82314453 -29.11148438 15.83378906 -29.13671875 14.81445312 C-29.15413695 10.49764147 -29.14064703 7.57575846 -27.0390625 3.74609375 C-19.46892809 -2.67971802 -9.27852109 -3.13300712 0 0 Z " fill="#F4F4F4" transform="translate(197.6875,230.25)"/>
<path d="M0 0 C2.6115118 2.26580183 3.8519623 4.03619015 4.38110352 7.48120117 C4.53932239 10.49765047 4.54524505 13.47989268 4.5 16.5 C4.51546875 17.53253906 4.5309375 18.56507813 4.546875 19.62890625 C4.50806749 27.14786149 4.50806749 27.14786149 2.1484375 31.10546875 C-3.93544491 36.47034688 -9.75305557 36.3464291 -17.59765625 36.3984375 C-22.49635943 35.82476618 -25.56957969 34.18445488 -29.33984375 31.0625 C-31.97130416 26.2082295 -31.61758439 21.43067308 -31.5625 16 C-31.59827148 14.37964844 -31.59827148 14.37964844 -31.63476562 12.7265625 C-31.62022017 4.87201429 -31.62022017 4.87201429 -28.77734375 0.875 C-20.20986571 -4.90895142 -9.07406354 -4.78450623 0 0 Z " fill="#FBFBFB" transform="translate(422,232)"/>
<path d="M0 0 C3.72040869 1.96167004 5.17782617 3.30831111 7.4375 6.8125 C7.98339844 10.1340332 7.98339844 10.1340332 8.046875 13.86328125 C8.06341125 14.52208786 8.07994751 15.18089447 8.09698486 15.85966492 C8.14527556 17.94820651 8.16679082 20.03602122 8.1875 22.125 C8.21567596 23.54756224 8.24560568 24.9700909 8.27734375 26.39257812 C8.35102563 29.86572825 8.40071715 33.33874072 8.4375 36.8125 C6.66048966 36.86654784 4.88300947 36.90531431 3.10546875 36.9375 C2.11571045 36.96070313 1.12595215 36.98390625 0.10620117 37.0078125 C-2.5625 36.8125 -2.5625 36.8125 -5.25 34.8125 C-5.683125 34.1525 -6.11625 33.4925 -6.5625 32.8125 C-7.34625 33.4725 -8.13 34.1325 -8.9375 34.8125 C-13.20478961 37.64046627 -17.61913462 37.74195139 -22.5625 36.8125 C-25.682731 34.81555216 -27.14806388 33.52550264 -28.03125 29.875 C-28.32188521 26.03861526 -27.83901197 24.21388835 -25.625 21 C-22.36488009 18.67134292 -19.58745987 17.6140508 -15.78125 16.50390625 C-12.87102006 15.59702122 -10.26971904 14.19912439 -7.5625 12.8125 C-6.9025 12.8125 -6.2425 12.8125 -5.5625 12.8125 C-5.706875 11.513125 -5.85125 10.21375 -6 8.875 C-6.12181641 7.77865234 -6.12181641 7.77865234 -6.24609375 6.66015625 C-6.38136614 4.80109771 -6.38136614 4.80109771 -7.5625 3.8125 C-9.56208364 3.77169217 -11.56295254 3.76995644 -13.5625 3.8125 C-13.68367188 4.51117188 -13.80484375 5.20984375 -13.9296875 5.9296875 C-14.18105469 7.29480469 -14.18105469 7.29480469 -14.4375 8.6875 C-14.59992188 9.59242188 -14.76234375 10.49734375 -14.9296875 11.4296875 C-15.5625 13.8125 -15.5625 13.8125 -17.5625 15.8125 C-23.56708716 16.35837156 -23.56708716 16.35837156 -26.5 14.75 C-28.22888145 11.59733383 -28.04832979 9.33476599 -27.5625 5.8125 C-20.98843522 -2.639869 -9.73379461 -3.22020273 0 0 Z " fill="#F6F6F6" transform="translate(115.5625,231.1875)"/>
<path d="M0 0 C4.89479866 -0.42770085 8.71774503 -0.70161121 13.10546875 1.69921875 C16.08960598 6.89838568 15.52638845 11.93879402 15.3125 17.8125 C15.27866211 19.56723633 15.27866211 19.56723633 15.24414062 21.35742188 C15.18532091 24.23958769 15.10317141 27.11913681 15 30 C17.82946661 28.34298468 19.99694337 26.6107933 22 24 C23.00891001 19.87484213 22.97986029 15.85604558 22.9375 11.625 C22.95361328 10.50738281 22.96972656 9.38976562 22.98632812 8.23828125 C23.02153161 5.49240937 23.01490109 2.7460571 23 0 C27.29 0 31.58 0 36 0 C36.06058594 2.08441406 36.12117188 4.16882813 36.18359375 6.31640625 C36.24556094 8.35525503 36.30887453 10.39405791 36.37231445 12.43286133 C36.41538658 13.84004557 36.45707864 15.24727282 36.49731445 16.65454102 C36.5556957 18.68779408 36.61918685 20.72083617 36.68359375 22.75390625 C36.73858032 24.58417358 36.73858032 24.58417358 36.79467773 26.45141602 C37.00081086 30.01401411 37.44468315 33.47640588 38 37 C34.29038624 37.28781486 30.70123503 37.43732172 27 37 C24.05136388 34.40239199 23.23021592 32.69064777 22 29 C21.59007812 29.49371094 21.18015625 29.98742187 20.7578125 30.49609375 C20.21898437 31.13675781 19.68015625 31.77742188 19.125 32.4375 C18.59132813 33.07558594 18.05765625 33.71367187 17.5078125 34.37109375 C14.76697355 37.33205189 12.07818745 37.26561932 8.16796875 37.62109375 C4.6879803 36.62412409 2.82570539 33.98234111 1 31 C0.34057617 27.47314453 0.34057617 27.47314453 0.29296875 23.6328125 C0.27784744 22.95322479 0.26272614 22.27363708 0.24714661 21.57345581 C0.20449287 19.42362717 0.19545481 17.27520839 0.1875 15.125 C0.16433781 13.65881727 0.13896888 12.19266764 0.11132812 10.7265625 C0.0487011 7.1510679 0.01618836 3.57604108 0 0 Z " fill="#F5F5F5" transform="translate(290,231)"/>
<path d="M0 0 C3.96 -0.061875 7.92 -0.12375 12 -0.1875 C13.23234375 -0.21481201 14.4646875 -0.24212402 15.734375 -0.27026367 C23.35808728 -0.32766371 29.5997026 0.01437301 35.5625 5.25 C37.51260125 8.98062848 37.18275569 11.00819956 36 15 C34.25 17 34.25 17 32 18 C29.26168243 17.86642353 27.58516412 17.35527822 25.25 15.9375 C23.25577177 12.84644624 23.35183659 9.63564476 23 6 C21.4 4.2 21.4 4.2 15 4 C15 10.27 15 16.54 15 23 C16.65 22.67 18.3 22.34 20 22 C20.33 21.34 20.66 20.68 21 20 C22.65 20 24.3 20 26 20 C26 24.62 26 29.24 26 34 C24.02 34.495 24.02 34.495 22 35 C21.34 34.34 20.68 33.68 20 33 C18.35 32.67 16.7 32.34 15 32 C15 36.95 15 41.9 15 47 C10.38 47 5.76 47 1 47 C0.67 31.49 0.34 15.98 0 0 Z " fill="#F3F3F3" transform="translate(28,221)"/>
<path d="M0 0 C10 0 10 0 12.5625 1.6875 C14.11179144 4.17983841 14.50140324 6.13663001 15 9 C15.48210937 8.43410156 15.96421875 7.86820313 16.4609375 7.28515625 C17.09257812 6.55167969 17.72421875 5.81820312 18.375 5.0625 C19.00148438 4.33160156 19.62796875 3.60070312 20.2734375 2.84765625 C22.56404631 0.39639388 23.50091409 0.03254908 26.875 -0.1875 C29.94628429 -0.00322294 31.48618314 0.2941957 34 2 C36.37068912 5.55603368 36.34465108 8.17993345 36.4140625 12.29296875 C36.43342865 12.99899734 36.4527948 13.70502594 36.4727478 14.43244934 C36.53245224 16.68401061 36.5788914 18.93562328 36.625 21.1875 C36.66318829 22.71551689 36.70224052 24.24351245 36.7421875 25.77148438 C36.83814596 29.51414935 36.92221011 33.2569151 37 37 C35.41820385 37.10867302 33.83422847 37.18589827 32.25 37.25 C31.36828125 37.29640625 30.4865625 37.3428125 29.578125 37.390625 C27 37 27 37 24.70996094 35.33691406 C22.61852042 32.47865183 22.46545113 30.87620323 22.390625 27.359375 C22.35839844 26.28945313 22.32617188 25.21953125 22.29296875 24.1171875 C22.27878906 23.00601563 22.26460938 21.89484375 22.25 20.75 C22.22035156 19.62335938 22.19070313 18.49671875 22.16015625 17.3359375 C22.08951088 14.55721979 22.03678723 11.77933852 22 9 C19.13078461 10.2862 16.905893 11.46110807 15 14 C14.4959183 16.50873159 14.4959183 16.50873159 14.48828125 19.32421875 C14.45283203 20.35224609 14.41738281 21.38027344 14.38085938 22.43945312 C14.34702148 24.04723633 14.34702148 24.04723633 14.3125 25.6875 C14.27833984 26.77095703 14.24417969 27.85441406 14.20898438 28.97070312 C14.1264625 31.64676977 14.06155614 34.32336903 14 37 C9.71 37 5.42 37 1 37 C0.67 24.79 0.34 12.58 0 0 Z " fill="#FCFCFC" transform="translate(430,231)"/>
<path d="M0 0 C3.96 -0.061875 7.92 -0.12375 12 -0.1875 C13.23234375 -0.21481201 14.4646875 -0.24212402 15.734375 -0.27026367 C22.85771346 -0.32389632 29.37605141 -0.17095502 35 4.75 C36.46163259 8.03867332 36.44415532 10.44675747 36 14 C34.375 16.5 34.375 16.5 32 18 C28.56170321 18 26.7670522 17.68770197 24.1875 15.375 C22.64953714 12.29907428 22.38450678 9.39647655 22 6 C20.4 4.2 20.4 4.2 14 4 C14 10.27 14 16.54 14 23 C15.98 23 17.96 23 20 23 C20.33 22.01 20.66 21.02 21 20 C22.65 20.33 24.3 20.66 26 21 C26 25.29 26 29.58 26 34 C23.525 34.495 23.525 34.495 21 35 C20.34 34.01 19.68 33.02 19 32 C17.35 31.67 15.7 31.34 14 31 C14 36.28 14 41.56 14 47 C9.71 47 5.42 47 1 47 C0.67 31.49 0.34 15.98 0 0 Z " fill="#FBFBFB" transform="translate(250,221)"/>
<path d="M0 0 C10 0 10 0 12.60058594 1.55175781 C14.51526213 4.90143905 14.45371728 7.32324595 14.390625 11.171875 C14.38496521 11.8542926 14.37930542 12.53671021 14.37347412 13.23980713 C14.35115636 15.41059762 14.30097508 17.57971206 14.25 19.75 C14.22992876 21.2252365 14.21167907 22.70049899 14.1953125 24.17578125 C14.1513088 27.78439501 14.08231583 31.39203381 14 35 C18.32872895 32.49754562 18.32872895 32.49754562 21.34912109 28.63598633 C22.08850386 25.64156934 22.32290963 22.90822406 22.4140625 19.82421875 C22.45273438 18.66728516 22.49140625 17.51035156 22.53125 16.31835938 C22.5621875 15.12017578 22.593125 13.92199219 22.625 12.6875 C22.66367188 11.46998047 22.70234375 10.25246094 22.7421875 8.99804688 C22.83628002 5.99884772 22.92192209 2.99965177 23 0 C24.41569064 -0.08167446 25.83276805 -0.13949698 27.25 -0.1875 C28.43335938 -0.23970703 28.43335938 -0.23970703 29.640625 -0.29296875 C32.63176887 0.07844812 33.90733352 0.84024579 36 3 C36.51757812 5.24902344 36.51757812 5.24902344 36.53125 7.859375 C36.53898437 9.28636719 36.53898437 9.28636719 36.546875 10.7421875 C36.53140625 11.73476562 36.5159375 12.72734375 36.5 13.75 C36.51546875 14.72710937 36.5309375 15.70421875 36.546875 16.7109375 C36.51301327 22.99228873 35.81510691 26.94448047 32 32 C29.96484375 33.5234375 29.96484375 33.5234375 27.9375 34.375 C27.26589844 34.67148437 26.59429687 34.96796875 25.90234375 35.2734375 C22.52651018 36.56277024 19.92662901 37.12055178 16.33203125 37.09765625 C15.52741455 37.09515869 14.72279785 37.09266113 13.89379883 37.09008789 C12.36855591 37.07643188 12.36855591 37.07643188 10.8125 37.0625 C5.9553125 37.0315625 5.9553125 37.0315625 1 37 C0.67 24.79 0.34 12.58 0 0 Z " fill="#F7F7F7" transform="translate(129,231)"/>
<path d="M0 0 C3 1 3 1 4.140625 3.23046875 C4.50671875 4.20628906 4.8728125 5.18210937 5.25 6.1875 C21.83521729 47.9981376 55.12202204 80.65886267 96.0625 98.75 C110.06526374 104.7313186 124.04679302 108.36656965 139 111 C139.90556641 111.176521 140.81113281 111.35304199 141.74414062 111.53491211 C145.6772747 112.09674627 149.56247292 112.19925739 153.52734375 112.23828125 C154.34453384 112.24816574 155.16172394 112.25805023 156.00367737 112.26823425 C208.99095312 112.77654835 253.26557875 96.70720858 291.45410156 59.52587891 C294.52551421 56.49424134 297.35252017 53.40818104 300 50 C300.59409668 49.24178955 300.59409668 49.24178955 301.20019531 48.46826172 C311.93725777 34.65731377 319.79549236 19.88583955 327 4 C327.65802289 2.66237969 328.32023003 1.3267008 329 0 C329.66 0 330.32 0 331 0 C329.09997735 7.3083818 326.38508548 13.73493142 322.8125 20.375 C322.32346191 21.2932959 321.83442383 22.2115918 321.33056641 23.15771484 C298.573659 65.35452219 260.78194046 94.07048179 215.79174805 109.10888672 C199.42014638 114.00186152 183.09068236 115.53753396 166.0625 115.375 C165.18847534 115.37034729 164.31445068 115.36569458 163.41394043 115.36090088 C150.77095863 115.28208074 138.33282697 115.05896225 126 112 C125.20932129 111.80664062 124.41864258 111.61328125 123.60400391 111.4140625 C78.05346735 99.84113653 38.63772329 71.03421523 14 31 C11.92172335 27.41500632 9.9406775 23.78610402 8 20.125 C7.54318848 19.26986816 7.08637695 18.41473633 6.61572266 17.53369141 C3.68098993 11.8456538 1.62347072 6.18865719 0 0 Z " fill="#31A0E1" transform="translate(82,311)"/>
<path d="M0 0 C2.77044891 1.71889166 4.73188167 3.01063834 6.203125 5.953125 C6.65260564 12.13348383 6.65260564 12.13348383 5.140625 14.890625 C2.04818742 16.58647787 -0.35202241 16.38373157 -3.796875 15.953125 C-5.734375 14.453125 -5.734375 14.453125 -6.796875 11.953125 C-7.02532171 9.23253231 -6.93391673 6.6939596 -6.796875 3.953125 C-9.106875 3.953125 -11.416875 3.953125 -13.796875 3.953125 C-13.796875 7.253125 -13.796875 10.553125 -13.796875 13.953125 C-13.0234375 14.18386719 -12.25 14.41460937 -11.453125 14.65234375 C2.5714878 19.04371385 2.5714878 19.04371385 6.203125 22.953125 C7.19543321 25.84197493 7.09167704 28.04620641 6.203125 30.953125 C3.07220197 35.18907968 0.18225183 36.57540544 -4.796875 37.953125 C-12.34769952 38.7587961 -19.61806635 38.83279953 -25.796875 33.953125 C-27.94168226 31.33914116 -28.66990085 29.69683073 -29.234375 26.390625 C-28.796875 23.953125 -28.796875 23.953125 -27.234375 21.578125 C-24.796875 19.953125 -24.796875 19.953125 -21.234375 19.953125 C-17.796875 20.953125 -17.796875 20.953125 -15.859375 22.515625 C-14.29804278 26.0975048 -14.60237155 29.06305602 -14.796875 32.953125 C-12.79732754 32.99566856 -10.79645864 32.99393283 -8.796875 32.953125 C-7.56420152 31.94476438 -7.56420152 31.94476438 -7.69921875 29.88671875 C-7.71082031 29.06300781 -7.72242188 28.23929687 -7.734375 27.390625 C-7.74339844 26.56433594 -7.75242187 25.73804688 -7.76171875 24.88671875 C-7.77332031 24.24863281 -7.78492188 23.61054688 -7.796875 22.953125 C-8.32643799 22.76202148 -8.85600098 22.57091797 -9.40161133 22.37402344 C-11.80920196 21.49680857 -14.20913264 20.60024075 -16.609375 19.703125 C-17.44275391 19.40277344 -18.27613281 19.10242188 -19.13476562 18.79296875 C-26.97555712 15.83299124 -26.97555712 15.83299124 -28.796875 11.953125 C-28.85903631 8.53425291 -28.78141247 6.10224187 -26.48828125 3.42578125 C-19.75552117 -2.36674301 -8.29556623 -3.10504434 0 0 Z " fill="#F3F3F3" transform="translate(360.796875,230.046875)"/>
<path d="M0 0 C0.81285461 -0.00992981 1.62570923 -0.01985962 2.4631958 -0.03009033 C36.10574069 -0.35632787 66.41225023 4.40478336 96.1796875 21.23828125 C97.11530518 21.75575928 97.11530518 21.75575928 98.06982422 22.28369141 C133.68806104 42.10987719 161.04844492 74.51038171 176.1796875 112.23828125 C176.1796875 113.22828125 176.1796875 114.21828125 176.1796875 115.23828125 C175.5196875 115.23828125 174.8596875 115.23828125 174.1796875 115.23828125 C173.93436279 114.66086182 173.68903809 114.08344238 173.4362793 113.48852539 C167.75362527 100.24037077 161.5675936 87.976441 153.1796875 76.23828125 C152.76750977 75.65788086 152.35533203 75.07748047 151.93066406 74.47949219 C143.47736463 62.71571449 133.57763961 51.23666449 122.1796875 42.23828125 C121.67228027 41.82433105 121.16487305 41.41038086 120.64208984 40.98388672 C83.75932574 11.04718589 37.75041638 -1.37638178 -9.21630859 3.39477539 C-11.75217117 3.66626185 -14.28639467 3.94926958 -16.8203125 4.23828125 C-17.92375 4.35945313 -19.0271875 4.480625 -20.1640625 4.60546875 C-59.79728392 10.06060316 -100.12993095 35.27868977 -124.8203125 66.23828125 C-128.67663094 71.4442398 -132.26133357 76.82683265 -135.8203125 82.23828125 C-136.53316406 83.29917969 -137.24601562 84.36007813 -137.98046875 85.453125 C-144.06194948 94.84738052 -148.41754934 104.97695301 -152.8203125 115.23828125 C-153.4803125 115.23828125 -154.1403125 115.23828125 -154.8203125 115.23828125 C-153.85158962 109.38598987 -151.31366654 104.48438726 -148.7578125 99.17578125 C-148.25902588 98.13953613 -147.76023926 97.10329102 -147.24633789 96.03564453 C-143.62211741 88.62884406 -139.78427138 81.8408285 -134.8203125 75.23828125 C-134.06363281 74.20058594 -133.30695313 73.16289062 -132.52734375 72.09375 C-119.79394797 54.87994286 -104.69151959 40.04111745 -86.8203125 28.23828125 C-86.23942871 27.85430176 -85.65854492 27.47032227 -85.06005859 27.07470703 C-59.92662064 10.71669648 -30.11954569 0.30272918 0 0 Z " fill="#31A1E1" transform="translate(236.8203125,73.76171875)"/>
<path d="M0 0 C3 1 3 1 4.7265625 4.0703125 C5.3668229 5.41836275 5.99910259 6.77022131 6.625 8.125 C12.75754212 20.83762112 19.59924387 32.39520614 29 43 C29.43070801 43.49097168 29.86141602 43.98194336 30.30517578 44.48779297 C55.15977385 72.72799034 88.81973193 91.15378138 126 97 C126.90862793 97.17128418 127.81725586 97.34256836 128.75341797 97.51904297 C169.65649929 103.57853088 212.62196908 91.98564885 245.67138672 67.61132812 C269.55384885 49.61954172 285.86213796 26.60048023 299 0 C299.66 0 300.32 0 301 0 C295.04099118 20.28668031 280.93644977 37.61252824 267 53 C266.33613281 53.74894531 265.67226563 54.49789062 264.98828125 55.26953125 C244.81979871 76.79768677 215.40071291 91.21224277 187 98 C186.33258789 98.16371094 185.66517578 98.32742188 184.97753906 98.49609375 C173.48722578 101.16851644 161.92282126 101.2846737 150.1875 101.3125 C149.44228088 101.31617584 148.69706177 101.31985168 147.92926025 101.32363892 C138.11817967 101.34888415 128.68937762 100.71118124 119 99 C117.83198853 98.79709351 117.83198853 98.79709351 116.64038086 98.59008789 C76.52212035 91.07184744 39.34867358 65.13570612 16.4375 31.72119141 C0 7.0800494 0 7.0800494 0 0 Z " fill="#DFC24D" transform="translate(97,311)"/>
<path d="M0 0 C13.78341206 12.04418025 24.41643014 25.92561633 33.7265625 41.6015625 C34.13140869 42.2824292 34.53625488 42.9632959 34.95336914 43.66479492 C42.3515625 56.41238002 42.3515625 56.41238002 42.3515625 60.7890625 C39.3515625 59.7890625 39.3515625 59.7890625 37.625 56.71875 C36.9847396 55.37069975 36.35245991 54.01884119 35.7265625 52.6640625 C29.5950853 39.95364892 22.75647169 28.38656853 13.3515625 17.7890625 C12.90441895 17.27633789 12.45727539 16.76361328 11.99658203 16.23535156 C-7.79422536 -6.38853742 -32.63137166 -22.2518043 -61.3984375 -31.1484375 C-62.27129395 -31.41881836 -63.14415039 -31.68919922 -64.04345703 -31.96777344 C-78.56987523 -36.18848563 -92.77079052 -37.7719191 -107.8359375 -37.6484375 C-108.6410376 -37.64506378 -109.4461377 -37.64169006 -110.27563477 -37.63821411 C-147.43111091 -37.41359454 -183.46693106 -24.89191091 -211.6484375 -0.2109375 C-212.14408203 0.21912598 -212.63972656 0.64918945 -213.15039062 1.09228516 C-232.48168891 17.97487403 -245.31378194 37.9426474 -256.6484375 60.7890625 C-257.3084375 60.7890625 -257.9684375 60.7890625 -258.6484375 60.7890625 C-251.05443565 32.43812225 -226.52544755 6.76310524 -203.6484375 -10.2109375 C-203.07770508 -10.63665039 -202.50697266 -11.06236328 -201.91894531 -11.50097656 C-186.53273865 -22.8042266 -168.2877083 -31.89861744 -149.6484375 -36.2109375 C-148.85115234 -36.40268555 -148.05386719 -36.59443359 -147.23242188 -36.79199219 C-93.88429865 -49.07689059 -41.49477011 -34.64017682 0 0 Z " fill="#DFC24D" transform="translate(355.6484375,128.2109375)"/>
<path d="M0 0 C10 0 10 0 12.5625 1.6875 C14.11179144 4.17983841 14.50140324 6.13663001 15 9 C15.48210937 8.43410156 15.96421875 7.86820313 16.4609375 7.28515625 C17.09257812 6.55167969 17.72421875 5.81820312 18.375 5.0625 C19.00148437 4.33160156 19.62796875 3.60070312 20.2734375 2.84765625 C22.69413833 0.25717776 23.72398167 0.03124736 27.3125 -0.375 C31 0 31 0 33.9375 2.125 C36 5 36 5 36.5625 8.0625 C35.87017778 11.67796049 34.99948609 12.89225302 32 15 C29.5 15.5 29.5 15.5 27 15 C24.6875 13.25 24.6875 13.25 23 11 C23 9.68 23 8.36 23 7 C18.98597905 9.5755126 15.50019094 11.92857317 14.33984375 16.73388672 C14.2138791 19.83475034 14.30008699 22.84077064 14.5 25.9375 C14.53609375 27.00291016 14.5721875 28.06832031 14.609375 29.16601562 C14.70311102 31.77890719 14.84659192 34.38993204 15 37 C10.38 37 5.76 37 1 37 C0.67 24.79 0.34 12.58 0 0 Z " fill="#FAFAFA" transform="translate(209,231)"/>
<path d="M0 0 C8.86467104 -0.6090232 8.86467104 -0.6090232 12.58691406 1.38769531 C14.77433029 5.43146754 14.60332282 9.26538176 14.609375 13.796875 C14.63417938 15.22003021 14.63417938 15.22003021 14.65948486 16.67193604 C14.70801439 19.69802288 14.72934695 22.72360701 14.75 25.75 C14.77815551 27.80341078 14.80808235 29.85679808 14.83984375 31.91015625 C14.91377484 36.94006279 14.96331933 41.96968944 15 47 C13.41753293 47.08153933 11.83383727 47.13943557 10.25 47.1875 C8.92742187 47.23970703 8.92742187 47.23970703 7.578125 47.29296875 C4.46434911 46.93913058 3.17268245 46.24402084 1 44 C0.48101807 41.96882629 0.48101807 41.96882629 0.45410156 39.62036133 C0.43438293 38.73967484 0.41466431 37.85898834 0.39434814 36.95161438 C0.39311951 36.00465195 0.39189087 35.05768951 0.390625 34.08203125 C0.37408875 33.10965012 0.35755249 32.13726898 0.34051514 31.13542175 C0.29190534 28.02771776 0.27063524 24.92050353 0.25 21.8125 C0.22185121 19.70635539 0.19192532 17.60023373 0.16015625 15.49414062 C0.08614275 10.32946738 0.03664737 5.16506811 0 0 Z " fill="#FBFBFB" transform="translate(69,221)"/>
<path d="M0 0 C10 0 10 0 12.58691406 1.52441406 C14.49205399 4.86202962 14.60280982 7.86259303 14.609375 11.609375 C14.63417938 12.69958954 14.63417938 12.69958954 14.65948486 13.81182861 C14.70792361 16.12463869 14.72932489 18.43679157 14.75 20.75 C14.77816341 22.32164757 14.80809137 23.89326459 14.83984375 25.46484375 C14.91368047 29.30984169 14.96327948 33.15447572 15 37 C10.38 37 5.76 37 1 37 C0.67 24.79 0.34 12.58 0 0 Z " fill="#FAFAFA" transform="translate(372,231)"/>
<path d="M0 0 C10 0 10 0 12.60058594 1.53808594 C14.54105702 4.95185258 14.45278188 7.47474134 14.390625 11.390625 C14.38496521 12.09523865 14.37930542 12.79985229 14.37347412 13.52581787 C14.35115078 15.76791428 14.30096754 18.00838988 14.25 20.25 C14.22992952 21.77341435 14.2116797 23.29685386 14.1953125 24.8203125 C14.15130118 28.5473983 14.08230372 32.27354087 14 36 C9.71 36 5.42 36 1 36 C0.67 24.12 0.34 12.24 0 0 Z " fill="#FDFDFD" transform="translate(129,231)"/>
<path d="M0 0 C2.5 0.25 2.5 0.25 4.5 2.25 C4.75878906 4.92382812 4.75878906 4.92382812 4.765625 8.28125 C4.76820313 9.48394531 4.77078125 10.68664062 4.7734375 11.92578125 C4.76570313 13.18777344 4.75796875 14.44976562 4.75 15.75 C4.75773437 17.01199219 4.76546875 18.27398437 4.7734375 19.57421875 C4.77085937 20.77691406 4.76828125 21.97960937 4.765625 23.21875 C4.76336914 24.32669922 4.76111328 25.43464844 4.75878906 26.57617188 C4.5 29.25 4.5 29.25 2.5 31.25 C0 31.5 0 31.5 -2.5 31.25 C-5.22234602 28.52765398 -4.75788057 27.02237127 -4.765625 23.21875 C-4.76820313 22.01605469 -4.77078125 20.81335938 -4.7734375 19.57421875 C-4.76570313 18.31222656 -4.75796875 17.05023438 -4.75 15.75 C-4.75773437 14.48800781 -4.76546875 13.22601563 -4.7734375 11.92578125 C-4.77085937 10.72308594 -4.76828125 9.52039063 -4.765625 8.28125 C-4.76336914 7.17330078 -4.76111328 6.06535156 -4.75878906 4.92382812 C-4.41162779 1.33693164 -3.61616095 0.3616161 0 0 Z " fill="#090909" transform="translate(408.5,232.75)"/>
<path d="M0 0 C-1 3 -1 3 -2.72387695 4.0715332 C-3.47113037 4.39468506 -4.21838379 4.71783691 -4.98828125 5.05078125 C-5.82955566 5.41671387 -6.67083008 5.78264648 -7.53759766 6.15966797 C-8.45331543 6.54010254 -9.3690332 6.92053711 -10.3125 7.3125 C-11.72861572 7.90635498 -11.72861572 7.90635498 -13.17333984 8.51220703 C-19.40854453 11.06962737 -25.68593117 13.38552026 -32.125 15.375 C-32.83696533 15.60098877 -33.54893066 15.82697754 -34.2824707 16.05981445 C-48.76947396 20.29863373 -63.62324727 21.48507656 -78.64428711 21.33618164 C-81.19742199 21.31240761 -83.74951502 21.31568076 -86.30273438 21.32226562 C-96.68594888 21.3031864 -106.73015662 20.56243285 -117 19 C-116.505 17.515 -116.505 17.515 -116 16 C-108.47544588 16.90813584 -108.47544588 16.90813584 -105.38696289 17.50488281 C-101.40725248 18.08664975 -97.48574778 18.19878278 -93.47265625 18.23828125 C-92.65546616 18.24816574 -91.83827606 18.25805023 -90.99632263 18.26823425 C-60.13947279 18.56424818 -32.20139652 15.07163345 -4.1953125 1.03125 C-2 0 -2 0 0 0 Z " fill="#32A3E5" transform="translate(329,405)"/>
<path d="M0 0 C2.31 0.33 4.62 0.66 7 1 C7 10.57 7 20.14 7 30 C4.69 30.33 2.38 30.66 0 31 C-1.85714057 29.14285943 -1.13048681 26.07492951 -1.1328125 23.59375 C-1.13410156 22.29308594 -1.13539063 20.99242187 -1.13671875 19.65234375 C-1.13462402 18.97155762 -1.1325293 18.29077148 -1.13037109 17.58935547 C-1.1250224 15.50871485 -1.1303168 13.42829011 -1.13671875 11.34765625 C-1.13542969 10.04699219 -1.13414062 8.74632812 -1.1328125 7.40625 C-1.13168457 6.20291016 -1.13055664 4.99957031 -1.12939453 3.75976562 C-1 1 -1 1 0 0 Z " fill="#040404" transform="translate(184,233)"/>
<path d="M0 0 C4.48254691 0.39301952 6.79967385 3.53529919 9.625 6.6875 C10.15206543 7.26983398 10.67913086 7.85216797 11.22216797 8.45214844 C19.00481802 17.21202374 25.39726419 26.75430011 31.375 36.8125 C31.77992676 37.49344727 32.18485352 38.17439453 32.60205078 38.87597656 C40 51.62425587 40 51.62425587 40 56 C37 55 37 55 35.2734375 51.9296875 C34.6331771 50.58163725 34.00089741 49.22977869 33.375 47.875 C25.49861691 31.54743598 15.87376468 18.02559457 3.45361328 4.79418945 C0 1.10130866 0 1.10130866 0 0 Z " fill="#E3C54F" transform="translate(358,133)"/>
<path d="M0 0 C0.66 0 1.32 0 2 0 C-3.6446757 19.21657355 -19.00382319 44.72408609 -36 56 C-36 51.75764734 -33.51415394 50.15893579 -30.6875 47.3125 C-17.55790792 33.56205881 -8.37712374 16.94165517 0 0 Z " fill="#DFC24D" transform="translate(396,311)"/>
<path d="M0 0 C1.875 1.0625 1.875 1.0625 3 3 C3.4375 6.5 3.4375 6.5 3 10 C0.92308202 12.38460953 -0.40556916 12.8959746 -3.5 13.4375 C-6 13 -6 13 -8.375 11.4375 C-10 9 -10 9 -9.9375 5.375 C-8.3868786 -0.20723702 -5.30716391 -0.55282957 0 0 Z " fill="#F4F4F4" transform="translate(383,217)"/>
<path d="M0 0 C3.0625 0.1875 3.0625 0.1875 5.0625 2.1875 C5.33241906 4.87589385 5.14987357 7.47891936 5.0625 10.1875 C-3.66074723 14.9476476 -3.66074723 14.9476476 -8.9375 15.1875 C-11.3125 14.25 -11.3125 14.25 -12.9375 13.1875 C-10.6275 12.5275 -8.3175 11.8675 -5.9375 11.1875 C-5.80472656 10.47722656 -5.67195313 9.76695312 -5.53515625 9.03515625 C-5.35855469 8.11605469 -5.18195313 7.19695312 -5 6.25 C-4.82597656 5.33347656 -4.65195313 4.41695312 -4.47265625 3.47265625 C-3.6814864 0.09430325 -3.57767564 0.22836227 0 0 Z " fill="#151515" transform="translate(104.9375,233.8125)"/>
<path d="M0 0 C2.33944736 0.28730055 4.6739143 0.61936779 7 1 C7.66 4.3 8.32 7.6 9 11 C11.31 11.66 13.62 12.32 16 13 C16 13.33 16 13.66 16 14 C10.17017038 15.68758226 5.49338175 14.08976104 0 12 C-1 11 -1 11 -1.1328125 8.75 C-1.13023437 7.8425 -1.12765625 6.935 -1.125 6 C-1.12757813 5.0925 -1.13015625 4.185 -1.1328125 3.25 C-1 1 -1 1 0 0 Z " fill="#0B0B0B" transform="translate(347,233)"/>
<path d="M0 0 C1.4391134 0.28359887 2.87625518 0.57721399 4.3125 0.875 C5.11300781 1.03742188 5.91351563 1.19984375 6.73828125 1.3671875 C9 2 9 2 12 4 C12.36328125 6.09375 12.36328125 6.09375 12.3125 8.5 C12.30863281 9.2940625 12.30476563 10.088125 12.30078125 10.90625 C12 13 12 13 10 15 C6.875 14.625 6.875 14.625 4 14 C3.81824219 12.98679687 3.81824219 12.98679687 3.6328125 11.953125 C3.46523438 11.06109375 3.29765625 10.1690625 3.125 9.25 C2.96257812 8.36828125 2.80015625 7.4865625 2.6328125 6.578125 C2.03203736 4.13052256 1.22002883 2.19400143 0 0 Z " fill="#090909" transform="translate(342,249)"/>
<path d="M0 0 C7.04353123 -0.18902132 13.58807785 1.03203291 20.45898438 2.48974609 C22.10447266 2.82232422 22.10447266 2.82232422 23.78320312 3.16162109 C35.04533136 5.48230206 35.04533136 5.48230206 38.70898438 7.11474609 C39.20398438 8.59974609 39.20398438 8.59974609 39.70898438 10.11474609 C38.27232422 9.73382813 38.27232422 9.73382813 36.80664062 9.34521484 C18.67375073 4.61599852 1.47656237 2.54370576 -17.29101562 2.11474609 C-17.29101562 1.78474609 -17.29101562 1.45474609 -17.29101562 1.11474609 C-14.99967471 0.94365931 -12.70791873 0.77812929 -10.41601562 0.61474609 C-9.13984375 0.52193359 -7.86367187 0.42912109 -6.54882812 0.33349609 C-4.366334 0.2118472 -2.1831413 0.10934318 0 0 Z " fill="#D0B548" transform="translate(259.291015625,87.88525390625)"/>
<path d="M0 0 C6.0546875 -0.1953125 6.0546875 -0.1953125 8 0 C10 2 10 2 10.125 4.625 C10.08375 5.40875 10.0425 6.1925 10 7 C9.01 7.33 8.02 7.66 7 8 C7.495 8.78375 7.99 9.5675 8.5 10.375 C10 13 10 13 10 15 C9.01 14.67 8.02 14.34 7 14 C6.33333333 12.66666667 5.66666667 11.33333333 5 10 C4.01 9.67 3.02 9.34 2 9 C2 10.98 2 12.96 2 15 C1.34 15 0.68 15 0 15 C0 10.05 0 5.1 0 0 Z " fill="#CFB448" transform="translate(156,292)"/>
<path d="M0 0 C0.02685938 2.14576637 0.04633088 4.29162645 0.0625 6.4375 C0.07410156 7.63246094 0.08570312 8.82742187 0.09765625 10.05859375 C0 13 0 13 -1 14 C-4.4375 14.1875 -4.4375 14.1875 -8 14 C-10 12 -10 12 -10.625 9.25 C-9.76556397 4.78093266 -7.5582834 3.62675721 -3.9453125 1.1015625 C-2 0 -2 0 0 0 Z " fill="#070707" transform="translate(109,247)"/>
<path d="M0 0 C7 0 7 0 9 1.25 C10 3 10 3 9.75 4.9375 C9.5025 5.618125 9.255 6.29875 9 7 C8.07396879 9.69390896 7.81934012 10.56641628 8.9375 13.25 C9.288125 13.8275 9.63875 14.405 10 15 C9.01 15 8.02 15 7 15 C5.95107762 13.36368108 4.95093297 11.69514137 4 10 C3.34 9.67 2.68 9.34 2 9 C2 10.98 2 12.96 2 15 C1.34 15 0.68 15 0 15 C0 10.05 0 5.1 0 0 Z " fill="#D9BD4B" transform="translate(270,292)"/>
<path d="M0 0 C0.99 0 1.98 0 3 0 C4.65 4.95 6.3 9.9 8 15 C7.01 14.67 6.02 14.34 5 14 C5 13.34 5 12.68 5 12 C2.6568787 12.25561323 0.32156597 12.59270772 -2 13 C-2.33 13.66 -2.66 14.32 -3 15 C-3.66 15 -4.32 15 -5 15 C-4.37321829 11.33827525 -3.35548154 8.1181005 -1.9375 4.6875 C-1.39416016 3.36298828 -1.39416016 3.36298828 -0.83984375 2.01171875 C-0.56269531 1.34785156 -0.28554688 0.68398438 0 0 Z " fill="#DFC24D" transform="translate(293,292)"/>
<path d="M0 0 C0.99 0 1.98 0 3 0 C4.65 4.95 6.3 9.9 8 15 C7.01 14.67 6.02 14.34 5 14 C5 13.34 5 12.68 5 12 C2.6568787 12.25561323 0.32156597 12.59270772 -2 13 C-2.33 13.66 -2.66 14.32 -3 15 C-3.66 15 -4.32 15 -5 15 C-4.37321829 11.33827525 -3.35548154 8.1181005 -1.9375 4.6875 C-1.39416016 3.36298828 -1.39416016 3.36298828 -0.83984375 2.01171875 C-0.56269531 1.34785156 -0.28554687 0.68398438 0 0 Z " fill="#DFC24D" transform="translate(233,292)"/>
<path d="M0 0 C0.99 0 1.98 0 3 0 C4.60546875 2.1875 4.60546875 2.1875 6.1875 5 C6.71730469 5.928125 7.24710937 6.85625 7.79296875 7.8125 C8.19128906 8.534375 8.58960938 9.25625 9 10 C9.33 6.7 9.66 3.4 10 0 C10.66 0 11.32 0 12 0 C12 4.95 12 9.9 12 15 C6.81257257 12.40628629 5.86746405 9.9384103 3 5 C2.67 8.3 2.34 11.6 2 15 C1.34 15 0.68 15 0 15 C0 10.05 0 5.1 0 0 Z " fill="#E1C44E" transform="translate(309,292)"/>
<path d="M0 0 C2.97 0 5.94 0 9 0 C9 0.66 9 1.32 9 2 C7.02 2 5.04 2 3 2 C3 3.32 3 4.64 3 6 C4.65 6 6.3 6 8 6 C8 6.66 8 7.32 8 8 C6.35 8 4.7 8 3 8 C3 9.65 3 11.3 3 13 C4.98 13 6.96 13 9 13 C9 13.66 9 14.32 9 15 C6.03 15 3.06 15 0 15 C0 10.05 0 5.1 0 0 Z " fill="#B8A040" transform="translate(175,292)"/>
<path d="M0 0 C0.66 0 1.32 0 2 0 C2.33 3.96 2.66 7.92 3 12 C4.65 12 6.3 12 8 12 C8.33 8.04 8.66 4.08 9 0 C9.99 0 10.98 0 12 0 C12.08142927 1.7492214 12.13938541 3.49954542 12.1875 5.25 C12.22230469 6.22453125 12.25710938 7.1990625 12.29296875 8.203125 C11.95597709 11.42027204 11.2770356 12.73357995 9 15 C5.90482445 15.45137977 3.96304338 15.65549806 1.32421875 13.859375 C-0.59504904 11.16447391 -0.29279452 9.0766302 -0.1875 5.8125 C-0.16042969 4.72582031 -0.13335937 3.63914062 -0.10546875 2.51953125 C-0.07066406 1.68808594 -0.03585938 0.85664063 0 0 Z " fill="#CAB046" transform="translate(249,292)"/>
<path d="M0 0 C0 0.33 0 0.66 0 1 C-0.78012451 1.0501123 -1.56024902 1.10022461 -2.36401367 1.15185547 C-5.97225304 1.38701893 -9.57984991 1.63096915 -13.1875 1.875 C-14.41404297 1.95363281 -15.64058594 2.03226562 -16.90429688 2.11328125 C-24.0470323 2.60328421 -31.03697605 3.36830754 -38.09106445 4.60205078 C-41.09670309 5.01322921 -43.97027125 5.06698332 -47 5 C-44.2367853 2.2367853 -41.28354092 2.01255518 -37.5625 1.375 C-36.41225342 1.17716919 -36.41225342 1.17716919 -35.23876953 0.9753418 C-23.59519467 -0.77788093 -11.73767662 -0.25482598 0 0 Z " fill="#EFD053" transform="translate(257,88)"/>
<path d="M0 0 C0 0.33 0 0.66 0 1 C-15.48008749 4.33736356 -30.24813145 4.00867073 -46 3 C-46 2.67 -46 2.34 -46 2 C-44.92854736 1.970271 -44.92854736 1.970271 -43.83544922 1.93994141 C-26.19929108 1.54802981 -26.19929108 1.54802981 -8.734375 -0.6953125 C-5.628154 -1.04143427 -3.04647138 -0.63993926 0 0 Z " fill="#C9AF46" transform="translate(284,408)"/>
<path d="M0 0 C1.4540625 0.0309375 1.4540625 0.0309375 2.9375 0.0625 C3.5975 1.3825 4.2575 2.7025 4.9375 4.0625 C2.2975 3.4025 -0.3425 2.7425 -3.0625 2.0625 C-2.7325 3.0525 -2.4025 4.0425 -2.0625 5.0625 C-1.0725 5.51625 -0.0825 5.97 0.9375 6.4375 C3.9375 8.0625 3.9375 8.0625 4.9375 10.625 C4.9375 11.429375 4.9375 12.23375 4.9375 13.0625 C2.9375 15.0625 2.9375 15.0625 -0.1875 15.1875 C-1.13625 15.14625 -2.085 15.105 -3.0625 15.0625 C-3.7225 13.7425 -4.3825 12.4225 -5.0625 11.0625 C-2.4225 11.7225 0.2175 12.3825 2.9375 13.0625 C2.9375 11.7425 2.9375 10.4225 2.9375 9.0625 C1.98875 8.93875 1.04 8.815 0.0625 8.6875 C-3.0625 8.0625 -3.0625 8.0625 -5.0625 6.0625 C-4.33395709 0.0884481 -4.33395709 0.0884481 0 0 Z " fill="#D4B849" transform="translate(197.0625,291.9375)"/>
<path d="M0 0 C7.4499606 0.89913318 7.4499606 0.89913318 10.7265625 1.5 C14.08122351 2.01240645 17.32004254 2.2075243 20.7109375 2.31640625 C22.57685547 2.37924805 22.57685547 2.37924805 24.48046875 2.44335938 C26.40826172 2.50233398 26.40826172 2.50233398 28.375 2.5625 C29.68339844 2.60568359 30.99179688 2.64886719 32.33984375 2.69335938 C35.55979797 2.79912429 38.77982531 2.90121579 42 3 C42 3.33 42 3.66 42 4 C13.06736359 5.60666308 13.06736359 5.60666308 -1 3 C-0.67 2.01 -0.34 1.02 0 0 Z " fill="#2884BA" transform="translate(213,421)"/>
<path d="M0 0 C0 0.33 0 0.66 0 1 C-0.76183594 1.10957031 -1.52367187 1.21914062 -2.30859375 1.33203125 C-7.33699102 2.10418214 -12.09693825 2.90695733 -16.875 4.6875 C-20.5755377 6.03560117 -23.1330592 6.09067561 -27 5 C-23.28234307 2.87699695 -19.3029405 1.86511036 -15.1875 0.8125 C-14.50107422 0.62236328 -13.81464844 0.43222656 -13.10742188 0.23632812 C-8.35237399 -0.98279957 -4.81254989 -0.98767364 0 0 Z " fill="#2F9BDA" transform="translate(220,77)"/>
<path d="M0 0 C-3.6814391 1.99098237 -7.55711642 3.37956085 -11.5 4.75 C-12.49580078 5.11931641 -12.49580078 5.11931641 -13.51171875 5.49609375 C-18.49340469 7.21631664 -18.49340469 7.21631664 -21.22070312 6.05175781 C-21.80787109 5.70467773 -22.39503906 5.35759766 -23 5 C-20.10875777 3.96419671 -17.21320686 2.9461498 -14.3125 1.9375 C-13.49587891 1.64294922 -12.67925781 1.34839844 -11.83789062 1.04492188 C-4.32355667 -1.54098252 -4.32355667 -1.54098252 0 0 Z " fill="#D3B849" transform="translate(211,93)"/>
<path d="M0 0 C3.41655753 0.72692713 6.82568794 1.47775465 10.23046875 2.2578125 C9.24046875 2.9178125 8.25046875 3.5778125 7.23046875 4.2578125 C5.18652131 3.84902301 3.14460269 3.42203576 1.125 2.90625 C-2.50069744 2.09401548 -6.15004496 1.60325959 -9.83203125 1.1328125 C-10.51168945 1.04547852 -11.19134766 0.95814453 -11.89160156 0.86816406 C-13.5171784 0.66154404 -15.14329994 0.45921664 -16.76953125 0.2578125 C-11.58244115 -3.20024756 -5.88559775 -1.15882235 0 0 Z " fill="#2E99D6" transform="translate(284.76953125,76.7421875)"/>
<path d="M0 0 C3.3 0 6.6 0 10 0 C10 0.66 10 1.32 10 2 C8.68 2 7.36 2 6 2 C6 6.29 6 10.58 6 15 C5.34 15 4.68 15 4 15 C4 10.71 4 6.42 4 2 C2.68 2 1.36 2 0 2 C0 1.34 0 0.68 0 0 Z " fill="#E3C54F" transform="translate(210,292)"/>
<path d="M0 0 C1.99097846 2.98646769 2.94124926 5.59687262 4 9 C2.865625 9.12375 1.73125 9.2475 0.5625 9.375 C-1.2009375 9.684375 -1.2009375 9.684375 -3 10 C-3.33 10.66 -3.66 11.32 -4 12 C-4.66 12 -5.32 12 -6 12 C-5.18945653 7.00164861 -3.01752675 3.9776489 0 0 Z " fill="#CAB046" transform="translate(294,295)"/>
<path d="M0 0 C1.99097846 2.98646769 2.94124926 5.59687262 4 9 C2.865625 9.12375 1.73125 9.2475 0.5625 9.375 C-1.2009375 9.684375 -1.2009375 9.684375 -3 10 C-3.33 10.66 -3.66 11.32 -4 12 C-4.66 12 -5.32 12 -6 12 C-5.18945653 7.00164861 -3.01752675 3.9776489 0 0 Z " fill="#CAB046" transform="translate(234,295)"/>
<path d="M0 0 C3.3 0 6.6 0 10 0 C8.68 0.33 7.36 0.66 6 1 C6 5.62 6 10.24 6 15 C5.34 15 4.68 15 4 15 C4 10.71 4 6.42 4 2 C2.68 2 1.36 2 0 2 C0 1.34 0 0.68 0 0 Z " fill="#D4B94A" transform="translate(329,292)"/>
<path d="M0 0 C-2.20102789 1.46735193 -4.40230731 2.93428927 -6.60546875 4.3984375 C-8.03136995 5.35213977 -9.45253866 6.31307706 -10.86328125 7.2890625 C-14.79316547 10 -14.79316547 10 -17 10 C-15.65965294 5.97895881 -13.08336295 4.83694316 -9.625 2.75 C-9.03460938 2.37359375 -8.44421875 1.9971875 -7.8359375 1.609375 C-3.3733631 -1.12445437 -3.3733631 -1.12445437 0 0 Z " fill="#32A4E7" transform="translate(163,97)"/>
<path d="M0 0 C0 0.99 0 1.98 0 3 C-4.42882939 4.10720735 -8.46057302 4.22325051 -13 4 C-13.66 3.34 -14.32 2.68 -15 2 C-13.2508503 1.66223316 -11.50063855 1.32996329 -9.75 1 C-8.77546875 0.814375 -7.8009375 0.62875 -6.796875 0.4375 C-4 0 -4 0 0 0 Z " fill="#2C8FC9" transform="translate(282,421)"/>
<path d="M0 0 C0.66 0 1.32 0 2 0 C0.3341708 6.16356805 -2.87805286 11.48259656 -6 17 C-6.66 16.67 -7.32 16.34 -8 16 C-5.36 10.72 -2.72 5.44 0 0 Z " fill="#F2D254" transform="translate(396,311)"/>
<path d="M0 0 C1.27230469 0.01804688 2.54460937 0.03609375 3.85546875 0.0546875 C5.31919922 0.08949219 5.31919922 0.08949219 6.8125 0.125 C5.8225 0.455 4.8325 0.785 3.8125 1.125 C3.8125 1.785 3.8125 2.445 3.8125 3.125 C-1.0208472 3.20833357 -5.42442563 3.07761487 -10.1875 2.125 C-6.4507157 -0.36618953 -4.44298181 -0.0815226 0 0 Z " fill="#C0A742" transform="translate(157.1875,169.875)"/>
<path d="M0 0 C0 0.66 0 1.32 0 2 C-2.5546875 3.7265625 -2.5546875 3.7265625 -5.875 5.625 C-6.96554687 6.25664062 -8.05609375 6.88828125 -9.1796875 7.5390625 C-12 9 -12 9 -14 9 C-14 8.34 -14 7.68 -14 7 C-11.4453125 5.2734375 -11.4453125 5.2734375 -8.125 3.375 C-7.03445313 2.74335938 -5.94390625 2.11171875 -4.8203125 1.4609375 C-2 0 -2 0 0 0 Z " fill="#E4C64F" transform="translate(339,383)"/>
<path d="M0 0 C0.66 0 1.32 0 2 0 C2 4.95 2 9.9 2 15 C1.01 14.67 0.02 14.34 -1 14 C-0.67 9.38 -0.34 4.76 0 0 Z " fill="#FBDA57" transform="translate(319,292)"/>
<path d="M0 0 C0.99 0.33 1.98 0.66 3 1 C2.125 5.875 2.125 5.875 1 7 C-0.99958364 7.04080783 -3.00045254 7.04254356 -5 7 C-5.66 5.68 -6.32 4.36 -7 3 C-4.36 3.66 -1.72 4.32 1 5 C0.67 3.35 0.34 1.7 0 0 Z " fill="#E1C44E" transform="translate(199,300)"/>
<path d="M0 0 C1.65 0 3.3 0 5 0 C5.5625 1.9375 5.5625 1.9375 6 4 C5 5 5 5 2.4375 5.0625 C1.2309375 5.0315625 1.2309375 5.0315625 0 5 C0 3.35 0 1.7 0 0 Z " fill="#0F0D05" transform="translate(272,294)"/>
<path d="M0 0 C5.23880078 0.55145271 9.97350697 1.42922093 15 3 C15 3.33 15 3.66 15 4 C9.01006953 4.3152595 5.36439644 3.68219822 0 1 C0 0.67 0 0.34 0 0 Z " fill="#34AAEE" transform="translate(201,419)"/>
<path d="M0 0 C1.65 0 3.3 0 5 0 C5 1.65 5 3.3 5 5 C3.35 5 1.7 5 0 5 C0 3.35 0 1.7 0 0 Z " fill="#070602" transform="translate(159,294)"/>
<path d="M0 0 C0.99 0.33 1.98 0.66 3 1 C0.38485683 3.12038635 -2.19637616 5.13091744 -5 7 C-7.1875 6.625 -7.1875 6.625 -9 6 C-7.57140593 4.96674014 -6.13177617 3.94872366 -4.6875 2.9375 C-3.88699219 2.36902344 -3.08648437 1.80054687 -2.26171875 1.21484375 C-1.51535156 0.81394531 -0.76898438 0.41304688 0 0 Z " fill="#D7BB4A" transform="translate(162,111)"/>
<path d="M0 0 C0.75 1.625 0.75 1.625 1 4 C-0.9375 7.25 -0.9375 7.25 -3 10 C-3.66 9.67 -4.32 9.34 -5 9 C-3.7508258 5.54074837 -2.32472205 2.85306797 0 0 Z " fill="#2F99D7" transform="translate(102,149)"/>
<path d="M0 0 C1.74627478 2.61941217 2.38722388 4.03824877 3 7 C1.35 7 -0.3 7 -2 7 C-1.125 1.125 -1.125 1.125 0 0 Z " fill="#201C0B" transform="translate(294,295)"/>
<path d="M0 0 C1.74627478 2.61941217 2.38722388 4.03824877 3 7 C1.35 7 -0.3 7 -2 7 C-1.125 1.125 -1.125 1.125 0 0 Z " fill="#201C0B" transform="translate(234,295)"/>
<path d="M0 0 C3.63 0.66 7.26 1.32 11 2 C7.1496895 4.56687367 5.41430237 3.83288724 1 3 C0.67 2.01 0.34 1.02 0 0 Z " fill="#2A8CC4" transform="translate(284,77)"/>
<path d="M0 0 C7.50769231 -0.36923077 7.50769231 -0.36923077 10 1.5 C10.495 2.2425 10.495 2.2425 11 3 C9 4 9 4 6.8359375 3.44140625 C6.02382812 3.15136719 5.21171875 2.86132812 4.375 2.5625 C3.55773437 2.27503906 2.74046875 1.98757813 1.8984375 1.69140625 C1.27195313 1.46324219 0.64546875 1.23507812 0 1 C0 0.67 0 0.34 0 0 Z " fill="#2D94CF" transform="translate(191,417)"/>
<path d="M0 0 C-2.26969744 2.26969744 -3.97395487 2.99131829 -7 4 C-8.32 4 -9.64 4 -11 4 C-11 3.34 -11 2.68 -11 2 C-7.17679443 0.57741188 -4.08718695 -0.24042276 0 0 Z " fill="#32A3E5" transform="translate(196,82)"/>
<path d="M0 0 C3.48330216 0.64505596 6.09432866 1.98217268 9 4 C9 4.66 9 5.32 9 6 C5.06326356 4.68775452 2.77280706 3.08089673 0 0 Z " fill="#33A6E9" transform="translate(148,395)"/>
<path d="M0 0 C4.24822374 0.47202486 6.19989709 2.96655518 9 6 C4.58763974 6 3.21615077 3.9302707 0 1 C0 0.67 0 0.34 0 0 Z " fill="#E8CA50" transform="translate(141,372)"/>
<path d="M0 0 C3.16115776 1.36983503 3.9927092 1.9890638 6 5 C5.67 5.99 5.34 6.98 5 8 C0 2.25 0 2.25 0 0 Z " fill="#309EDE" transform="translate(114,364)"/>
<path d="M0 0 C-1.625 1.5625 -1.625 1.5625 -4 3 C-7.25 2.6875 -7.25 2.6875 -10 2 C-3.72972973 -1.24324324 -3.72972973 -1.24324324 0 0 Z " fill="#2A8BC4" transform="translate(203,80)"/>
<path d="M0 0 C0.99 0.33 1.98 0.66 3 1 C0.63707344 3.52588702 -0.66462511 4.88820837 -4 6 C-4 5.01 -4 4.02 -4 3 C-2.1875 1.25 -2.1875 1.25 0 0 Z " fill="#D7BB4A" transform="translate(343,378)"/>
<path d="M0 0 C0.66 0 1.32 0 2 0 C0.25 5.75 0.25 5.75 -2 8 C-3 5 -3 5 -1.6875 2.3125 C-1.130625 1.549375 -0.57375 0.78625 0 0 Z " fill="#D9BD4B" transform="translate(396,311)"/>
<path d="M0 0 C0.99 0.33 1.98 0.66 3 1 C-0.465 3.97 -0.465 3.97 -4 7 C-3.04065919 3.16263678 -2.76390737 2.40339772 0 0 Z " fill="#33A7EB" transform="translate(124,123)"/>
<path d="M0 0 C5.75 1.75 5.75 1.75 8 4 C5 5 5 5 1.8125 3.5625 C0.884375 3.046875 -0.04375 2.53125 -1 2 C-0.67 1.34 -0.34 0.68 0 0 Z " fill="#D4B849" transform="translate(318,104)"/>
<path d="M0 0 C0.99 0.33 1.98 0.66 3 1 C1.25 3.0625 1.25 3.0625 -1 5 C-3.25 4.75 -3.25 4.75 -5 4 C-2.6875 1.9375 -2.6875 1.9375 0 0 Z " fill="#309EDD" transform="translate(352,389)"/>
<path d="M0 0 C3.65316671 1.24976756 4.78065836 1.67098753 7 5 C4.625 4.75 4.625 4.75 2 4 C0.6875 1.9375 0.6875 1.9375 0 0 Z " fill="#D5B94A" transform="translate(136,367)"/>
<path d="M0 0 C2.88575819 0.39803561 3.82189513 0.79009069 5.75 3.0625 C6.1625 3.701875 6.575 4.34125 7 5 C4.03824877 4.38722388 2.61941217 3.74627478 0 2 C0 1.34 0 0.68 0 0 Z " fill="#D8BC4B" transform="translate(353,128)"/>
</svg>
